<?xml version="1.0" encoding="utf-8"?>
<!-- Generator: Adobe Illustrator 15.0.0, SVG Export Plug-In . SVG Version: 6.00 Build 0)  -->
<!DOCTYPE svg PUBLIC "-//W3C//DTD SVG 1.1//EN" "http://www.w3.org/Graphics/SVG/1.1/DTD/svg11.dtd">
<svg version="1.1" id="Layer_1" xmlns="http://www.w3.org/2000/svg" xmlns:xlink="http://www.w3.org/1999/xlink" x="0px" y="0px"
	 width="1740px" height="380px" viewBox="0 0 1740 380" enable-background="new 0 0 1740 380" xml:space="preserve">
<linearGradient id="SVGID_1_" gradientUnits="userSpaceOnUse" x1="156.8511" y1="414.7007" x2="374.7525" y2="196.7992">
	<stop  offset="0.0061" style="stop-color:#2386EB"/>
	<stop  offset="0.5102" style="stop-color:#207DDB"/>
	<stop  offset="1" style="stop-color:#2387EC"/>
</linearGradient>
<path fill="url(#SVGID_1_)" d="M252.503,371.925c37.066-8.207,63.763-30,78.916-64.919c10.755-24.789,16.04-51.106,17.736-77.979
	c1.095-17.341,0.708-34.776,0.873-52.171c0.011-1.224,0.087-4.599-0.405-5.826c-1.202,0.562-3.604,3.038-4.578,3.867
	c-5.54,4.709-10.989,9.527-16.452,14.328C259.575,249.877,190.56,310.529,121.57,371.208c-1.191,1.046-2.079,2.437-4.054,4.796
	c3.216,0.193,4.601,0.347,5.986,0.347c30.004,0.014,60.016,0.423,90.008-0.183C226.546,375.905,239.802,374.737,252.503,371.925z"/>
<path d="M55.07,374.355c3.438-0.291,7.447-1.457,9.981-3.635c23.921-20.565,47.609-41.402,71.307-62.229
	c28.638-25.166,57.21-50.405,85.829-75.595c28.083-24.718,56.176-49.427,84.288-74.114c25.577-22.458,51.188-44.874,76.769-67.324
	l12.766-10.938c-13.343,3.59-36.129,8.977-49.518,12.383c-9.071,2.306-9.16,2.056-12.732-6.844
	c-10.769-26.829-30.041-45.966-54.663-60.188c-20.741-11.978-43.483-17.165-67.099-17.385c-26.159-0.245-52.313-0.352-78.475-0.352
	c-26.373,0-52.753,0.109-79.125,0.297c-17.085,0.122-30.604,8.109-39.362,23.071c-5.151,8.802-6.371,18.855-6.4,28.702
	c-0.258,86.965-0.254,173.932-0.152,260.897c0.009,7.899,0.663,15.897,2.037,23.669c1.743,9.857,7.361,17.599,16.091,22.661
	C35.368,372.509,44.919,375.211,55.07,374.355z M74.543,94.819c0.013-4.781,0.251-9.574,0.647-14.34
	c1.048-12.617,6.936-18.813,19.479-20.502c3.329-0.449,6.716-0.626,10.078-0.636c23.773-0.066,47.557-0.489,71.316,0.065
	c18.642,0.433,37.053,3.125,54.226,11.158c20.508,9.591,34.065,25.397,41.554,46.637c1.164,3.301,0.102,5.327-2.625,7.16
	c-17.062,11.466-34.069,23.014-51.101,34.524c-27.746,18.752-55.487,37.508-83.246,56.236
	c-17.618,11.886-35.243,23.76-52.944,35.523c-1.464,0.974-4.582,1.962-5.103,1.359c-1.326-1.531-2.214-3.956-2.225-6.03
	c-0.138-26.788-0.092-53.578-0.089-80.367C74.514,142.011,74.479,118.415,74.543,94.819z"/>
<text transform="matrix(1 0 0 1 378.0068 367)" display="none"><tspan x="0" y="0" display="inline" font-family="'OpenSans-Bold'" font-size="400" letter-spacing="-40">E</tspan><tspan x="184.023" y="0" display="inline" font-family="'OpenSans-Bold'" font-size="400" letter-spacing="-36">V</tspan><tspan x="407.984" y="0" display="inline" font-family="'OpenSans-Bold'" font-size="400" letter-spacing="-28">A</tspan><tspan x="655.961" y="0" display="inline" font-family="'OpenSans-Bold'" font-size="400" letter-spacing="-30">U</tspan><tspan x="928.305" y="0" display="inline" font-family="'OpenSans-Bold'" font-size="400" letter-spacing="-34">L</tspan><tspan x="1120.281" y="0" display="inline" font-family="'OpenSans-Bold'" font-size="400" letter-spacing="-20">T</tspan></text>
<g>
	<path d="M578.397,367H413.944V81.453h164.453v49.609H474.491v62.695h96.68v49.609h-96.68V317h103.906V367z"/>
	<path d="M760.858,81.453h61.133L724.921,367h-66.016L562.03,81.453h61.133l53.711,169.922c2.994,10.028,6.085,21.713,9.277,35.059
		c3.189,13.348,5.176,22.625,5.957,27.832c1.431-11.978,6.314-32.941,14.648-62.891L760.858,81.453z"/>
	<path d="M996.733,367l-20.703-67.969H871.929L851.226,367h-65.234L886.772,80.281h74.023L1061.968,367H996.733z M961.577,248.25
		c-19.141-61.587-29.917-96.417-32.324-104.492c-2.411-8.072-4.135-14.453-5.176-19.141c-4.297,16.668-16.602,57.879-36.914,123.633
		H961.577z"/>
	<path d="M1302.327,81.453v184.766c0,21.094-4.721,39.584-14.16,55.469c-9.442,15.887-23.08,28.061-40.918,36.523
		c-17.841,8.465-38.935,12.695-63.281,12.695c-36.719,0-65.234-9.406-85.547-28.223c-20.313-18.814-30.469-44.562-30.469-77.246
		V81.453h60.352v174.805c0,22.006,4.425,38.153,13.281,48.438c8.854,10.288,23.502,15.43,43.945,15.43
		c19.791,0,34.146-5.176,43.066-15.527c8.917-10.352,13.379-26.593,13.379-48.73V81.453H1302.327z"/>
	<path d="M1342.249,367V81.453h60.547V317h115.82v50H1342.249z"/>
	<path d="M1644.382,367h-60.547V131.844h-77.539V81.453h215.625v50.391h-77.539V367z"/>
</g>
</svg>
